<?xml version="1.0" standalone="no"?>
<!DOCTYPE svg PUBLIC "-//W3C//DTD SVG 20010904//EN"
 "http://www.w3.org/TR/2001/REC-SVG-20010904/DTD/svg10.dtd">
<svg version="1.0" xmlns="http://www.w3.org/2000/svg"
 width="200.000000pt" height="200.000000pt" viewBox="0 0 200.000000 200.000000"
 preserveAspectRatio="xMidYMid meet">
<metadata>
Created by potrace 1.16, written by Peter Selinger 2001-2019
</metadata>
<g transform="translate(0.000000,200.000000) scale(0.100000,-0.100000)"
fill="#000000" stroke="none">
<path d="M978 1458 l-3 -53 -25 45 c-25 45 -52 59 -58 29 -1 -8 15 -46 37 -84
l40 -69 -18 -30 c-121 -201 -251 -430 -251 -441 0 -13 42 -15 295 -15 260 0
295 2 295 16 0 12 -196 356 -256 449 -12 18 -9 28 27 88 22 37 39 75 37 84 -6
31 -26 24 -51 -18 l-26 -43 -3 45 c-2 32 -8 45 -20 47 -14 3 -17 -6 -20 -50z
m-45 -400 c-19 -46 -44 -104 -55 -130 -21 -48 -21 -48 -70 -48 -56 0 -59 -14
25 130 78 134 75 130 107 130 l29 0 -36 -82z m205 -13 c29 -49 62 -107 73
-127 l19 -38 -48 0 -49 0 -31 73 c-17 39 -42 98 -56 130 l-26 58 32 -3 c29 -3
38 -12 86 -93z"/>
<path d="M90 615 l0 -115 25 0 c22 0 25 4 25 35 0 25 4 35 16 35 9 0 35 -16
58 -35 33 -27 52 -35 82 -35 l39 1 -38 32 c-42 37 -45 43 -17 50 39 10 54 101
22 130 -15 13 -39 17 -115 17 l-97 0 0 -115z"/>
<path d="M350 631 c0 -129 2 -131 121 -131 88 0 89 0 89 25 0 25 -1 25 -80 25
-73 0 -80 2 -80 20 0 18 7 20 70 20 68 0 70 1 70 25 0 24 -2 25 -70 25 -63 0
-70 2 -70 20 0 18 7 20 80 20 79 0 80 0 80 25 l0 25 -105 0 -105 0 0 -99z"/>
<path d="M590 615 l0 -115 25 0 c23 0 25 4 25 45 0 37 3 45 18 45 10 0 38 -20
62 -45 36 -36 51 -45 79 -45 l35 0 -57 58 -57 57 57 58 58 57 -36 0 c-28 0
-43 -9 -79 -45 -24 -25 -52 -45 -62 -45 -15 0 -18 8 -18 45 0 41 -2 45 -25 45
l-25 0 0 -115z"/>
<path d="M847 723 c-4 -3 -7 -55 -7 -115 l0 -108 25 0 c25 0 25 1 25 90 l0 90
65 0 c62 0 65 -1 65 -24 0 -28 -16 -36 -76 -36 -40 0 -44 -2 -44 -25 0 -16 6
-25 16 -25 9 0 34 -16 55 -35 29 -26 48 -35 74 -35 19 0 35 3 35 7 0 3 -15 20
-32 35 -22 19 -29 31 -20 34 30 13 42 37 42 83 0 26 -5 52 -12 59 -13 13 -199
17 -211 5z"/>
<path d="M1104 715 c-3 -8 -4 -53 -3 -101 5 -109 11 -114 131 -114 87 0 88 0
88 25 0 24 -2 24 -82 27 l-83 3 -3 63 -3 62 86 0 c84 0 85 0 85 25 l0 25 -105
0 c-84 0 -107 -3 -111 -15z"/>
<path d="M1378 701 c-32 -28 -33 -33 -37 -115 l-3 -86 26 0 c21 0 26 5 26 25
0 24 2 25 65 25 63 0 65 -1 65 -25 0 -20 5 -25 25 -25 l26 0 -3 113 -3 112
-77 3 c-73 3 -78 1 -110 -27z"/>
<path d="M1620 710 c-23 -23 -26 -68 -6 -96 11 -15 30 -20 88 -24 56 -4 73 -8
73 -20 0 -12 -18 -16 -87 -18 -86 -3 -88 -3 -88 -27 0 -25 1 -25 95 -25 107 0
135 14 135 68 0 52 -21 66 -102 72 -56 4 -73 8 -73 20 0 12 17 16 78 18 74 3
77 4 77 27 0 25 -1 25 -85 25 -72 0 -88 -3 -105 -20z"/>
</g>
</svg>
